HIERARCHY
ROOT Hips
{
	OFFSET -0.001795 -0.223333 0.028219
	CHANNELS 6 Xposition Yposition Zposition Zrotation Yrotation Xrotation 
	JOINT LeftUpLeg
	{
		OFFSET 0.069520 -0.091406 -0.006815
		CHANNELS 3 Zrotation Yrotation Xrotation
		JOINT LeftLeg
		{
			OFFSET 0.034277 -0.375199 -0.004496
			CHANNELS 3 Zrotation Yrotation Xrotation
			JOINT LeftFoot
			{
				OFFSET -0.013596 -0.397961 -0.043693
				CHANNELS 3 Zrotation Yrotation Xrotation
				JOINT LeftToe
				{
					OFFSET 0.026358 -0.055791 0.119288
					CHANNELS 3 Zrotation Yrotation Xrotation
					End Site
					{
						OFFSET 0.000000 0.000000 0.000000
					}
				}
			}
		}
	}
	JOINT RightUpLeg
	{
		OFFSET -0.067670 -0.090522 -0.004320
		CHANNELS 3 Zrotation Yrotation Xrotation
		JOINT RightLeg
		{
			OFFSET -0.038290 -0.382569 -0.008850
			CHANNELS 3 Zrotation Yrotation Xrotation
			JOINT RightFoot
			{
				OFFSET 0.015774 -0.398415 -0.042312
				CHANNELS 3 Zrotation Yrotation Xrotation
				JOINT RightToe
				{
					OFFSET -0.025372 -0.048144 0.123348
					CHANNELS 3 Zrotation Yrotation Xrotation
					End Site
					{
						OFFSET 0.000000 0.000000 0.000000
					}
				}
			}
		}
	}
	JOINT Spine
	{
		OFFSET -0.002533 0.108963 -0.026696
		CHANNELS 3 Zrotation Yrotation Xrotation
		JOINT Spine1
		{
			OFFSET 0.005487 0.135180 0.001092
			CHANNELS 3 Zrotation Yrotation Xrotation
			JOINT Spine2
			{
				OFFSET 0.001457 0.052922 0.025425
				CHANNELS 3 Zrotation Yrotation Xrotation
				JOINT Neck
				{
					OFFSET -0.002778 0.213870 -0.042857
					CHANNELS 3 Zrotation Yrotation Xrotation
					JOINT Head
					{
						OFFSET 0.005152 0.064970 0.051349
						CHANNELS 3 Zrotation Yrotation Xrotation
						End Site
						{
							OFFSET 0.000000 0.000000 0.000000
						}
					}
				}
				JOINT LeftShoulder
				{
					OFFSET 0.078845 0.121749 -0.034090
					CHANNELS 3 Zrotation Yrotation Xrotation
					JOINT LeftArm
					{
						OFFSET 0.090977 0.030469 -0.008868
						CHANNELS 3 Zrotation Yrotation Xrotation
						JOINT LeftForeArm
						{
							OFFSET 0.259612 -0.012772 -0.027456
							CHANNELS 3 Zrotation Yrotation Xrotation
							JOINT LeftHand
							{
								OFFSET 0.249234 0.008986 -0.001171
								CHANNELS 3 Zrotation Yrotation Xrotation
								End Site
								{
									OFFSET 0.000000 0.000000 0.000000
								}
							}
						}
					}
				}
				JOINT RightShoulder
				{
					OFFSET -0.081759 0.118833 -0.038615
					CHANNELS 3 Zrotation Yrotation Xrotation
					JOINT RightArm
					{
						OFFSET -0.096012 0.032551 -0.009143
						CHANNELS 3 Zrotation Yrotation Xrotation
						JOINT RightForeArm
						{
							OFFSET -0.253742 -0.013329 -0.021401
							CHANNELS 3 Zrotation Yrotation Xrotation
							JOINT RightHand
							{
								OFFSET -0.255298 0.007772 -0.005559
								CHANNELS 3 Zrotation Yrotation Xrotation
								End Site
								{
									OFFSET 0.000000 0.000000 0.000000
								}
							}
						}
					}
				}
			}
		}
	}
}
MOTION
Frames: 18
Frame Time: 0.050000
0.000000 0.962960 0.000000 -0.744989 5.087164 0.173694 3.879570 0.278110 7.527207 -2.503466 0.328865 -10.542278 0.336146 7.220426 16.700358 0.000000 0.000000 0.000000 -0.342390 -0.647710 6.234897 -0.696556 -0.150069 -4.964109 -3.099833 -10.530765 13.558611 0.000000 0.000000 0.000000 -1.088536 -0.118984 3.957299 2.670273 0.053297 -24.254275 -1.663456 -2.690119 27.969527 -0.353308 1.347344 -17.104296 0.000000 0.000000 0.000000 4.809151 8.966914 -2.606204 -4.262799 -13.455371 -1.071252 8.648382 2.789634 0.160326 0.000000 0.000000 0.000000 -13.546686 -5.108017 -0.928429 8.903464 9.023579 -1.121480 -10.616322 0.822568 0.199475 0.000000 0.000000 0.000000 
0.000420 0.961447 -0.000048 -1.304416 5.385999 0.286518 4.407579 0.238950 8.019481 -2.048449 0.328876 -11.970793 -0.411118 6.048093 16.335684 0.000000 0.000000 0.000000 0.520111 -0.781955 6.834164 -1.373180 -0.172780 -6.236564 -3.483544 -11.122773 12.948763 0.000000 0.000000 0.000000 -0.577907 -0.125674 3.562449 2.561098 0.077834 -24.081851 -1.943662 -3.776823 27.473349 -2.310184 2.557129 -16.545660 0.000000 0.000000 0.000000 3.562983 8.328694 -2.583986 -4.075315 -11.373489 -0.992405 6.571901 2.376095 0.100560 0.000000 0.000000 0.000000 -12.113234 -4.713417 -0.781313 8.933555 8.499608 -1.111382 -10.076972 4.582894 -0.054689 0.000000 0.000000 0.000000 
0.000650 0.960926 -0.000336 -0.940062 3.756505 0.089960 3.964084 0.311331 7.808829 -1.984708 0.339992 -10.197697 -0.114385 6.025176 15.511760 0.000000 0.000000 0.000000 -0.322487 -0.692129 6.747429 -0.629478 -0.198257 -5.850096 -2.727440 -9.970734 13.305614 0.000000 0.000000 0.000000 -0.641917 -0.129104 3.747203 2.369644 0.127052 -24.818122 -1.909429 -1.876966 28.952961 -1.139313 1.939085 -17.658217 0.000000 0.000000 0.000000 2.637233 8.659005 -2.782516 -4.877606 -13.224076 -1.104480 6.404625 3.059658 0.105543 0.000000 0.000000 0.000000 -10.492553 -5.947540 -1.344477 11.684596 10.944487 -1.257434 -12.076463 3.907128 -0.009898 0.000000 0.000000 0.000000 
0.000929 0.960481 -0.000475 -1.012886 4.026721 -0.374293 4.291506 0.306411 8.415908 -2.270134 0.341152 -10.364115 -0.395759 5.323422 14.544336 0.000000 0.000000 0.000000 -0.401482 -0.788645 7.674266 -0.275909 -0.244240 -6.374953 -2.791745 -10.233395 14.272679 0.000000 0.000000 0.000000 -0.793510 -0.136529 4.078535 3.130013 -0.054346 -24.817663 -2.538116 -2.518789 29.689161 -1.780751 2.301216 -17.595683 0.000000 0.000000 0.000000 0.890086 9.248641 -3.217441 -6.761102 -12.830342 -1.206760 7.217472 1.979219 0.107425 0.000000 0.000000 0.000000 -9.937329 -5.320290 -1.172128 12.048686 11.298966 -1.273422 -10.835237 4.273362 -0.030526 0.000000 0.000000 0.000000 
0.000935 0.960619 -0.000653 -0.910793 3.957094 -0.603461 4.354388 0.312082 8.588553 -2.832608 0.347055 -10.053395 -0.738114 4.767773 14.487497 0.000000 0.000000 0.000000 -0.460687 -0.800342 7.838442 -0.183870 -0.251890 -6.430418 -2.698908 -10.114287 14.488006 0.000000 0.000000 0.000000 -1.056461 -0.144808 4.621729 3.512124 -0.129354 -25.193572 -2.608806 -2.435158 29.292141 -1.551520 2.137130 -17.277965 0.000000 0.000000 0.000000 -0.454585 8.480064 -3.091510 -8.361030 -12.737674 -1.281030 7.488778 0.118433 0.058262 0.000000 0.000000 0.000000 -8.811648 -4.872588 -1.109909 14.182447 11.326317 -1.346480 -10.862950 6.021408 -0.143133 0.000000 0.000000 0.000000 
0.001016 0.960766 -0.000774 -0.718204 4.568021 -0.598103 4.412313 0.295187 8.652426 -2.784955 0.338718 -10.057419 -1.213079 4.101515 14.467379 0.000000 0.000000 0.000000 -0.601680 -0.802464 7.898217 -0.259869 -0.256565 -6.609659 -2.731012 -10.139894 14.758663 0.000000 0.000000 0.000000 -1.475665 -0.113191 4.192779 3.615144 -0.156900 -24.914763 -2.828753 -3.361980 29.397830 -1.228882 1.843977 -18.155476 0.000000 0.000000 0.000000 -1.683970 8.437742 -3.213152 -11.006320 -13.156043 -1.422702 8.206138 -1.650064 0.009535 0.000000 0.000000 0.000000 -8.015209 -4.561212 -1.023355 17.027663 12.602416 -1.368567 -11.382480 6.603597 -0.202473 0.000000 0.000000 0.000000 
0.000992 0.960543 -0.000952 -0.650445 4.432788 -0.725318 4.434742 0.302072 8.753654 -2.953997 0.342621 -9.998551 -1.167527 4.138519 14.419571 0.000000 0.000000 0.000000 -0.569275 -0.800798 7.874555 -0.438909 -0.243504 -6.554493 -2.601388 -9.907022 14.659245 0.000000 0.000000 0.000000 -1.562299 -0.107946 4.121867 3.810369 -0.238774 -24.258777 -2.964577 -3.464984 28.898234 -1.216347 1.809792 -18.183821 0.000000 0.000000 0.000000 -3.760576 7.900426 -3.229597 -12.866582 -12.955730 -1.523241 8.566997 -3.157621 -0.047761 0.000000 0.000000 0.000000 -5.999122 -3.564564 -0.841159 18.650617 12.566736 -1.412139 -11.708880 7.970446 -0.318022 0.000000 0.000000 0.000000 
0.000998 0.960360 -0.001109 -0.674308 4.356953 -0.631911 4.398456 0.295770 8.497941 -2.785616 0.340892 -9.665512 -0.982414 4.500828 14.656780 0.000000 0.000000 0.000000 -0.668097 -0.763719 7.610927 -0.199938 -0.245723 -6.304611 -2.632267 -9.950379 14.546906 0.000000 0.000000 0.000000 -1.374613 -0.113891 4.087619 3.803069 -0.232610 -24.383332 -3.143423 -3.392033 29.263875 -0.560019 1.394144 -18.880838 0.000000 0.000000 0.000000 -5.911324 7.144180 -3.151651 -15.334847 -12.746941 -1.688561 8.988205 -4.959443 -0.127838 0.000000 0.000000 0.000000 -3.936723 -3.106224 -0.840763 21.104984 13.078093 -1.467564 -11.901157 9.214884 -0.408891 0.000000 0.000000 0.000000 
0.001013 0.960009 -0.001139 -0.605554 4.292673 -0.619028 4.510475 0.283914 8.429525 -3.122934 0.346731 -9.578730 -0.859931 4.672459 14.634973 0.000000 0.000000 0.000000 -0.917784 -0.746495 7.648742 0.101616 -0.271848 -6.499662 -2.487955 -9.699433 14.547537 0.000000 0.000000 0.000000 -1.325712 -0.108666 3.868006 3.817413 -0.265244 -23.819328 -3.231473 -3.349839 28.993623 -0.499010 1.387675 -19.487721 0.000000 0.000000 0.000000 -8.014751 6.353699 -3.035557 -17.779457 -13.026450 -1.795058 9.601580 -6.117465 -0.197232 0.000000 0.000000 0.000000 -1.768390 -2.223816 -0.681337 23.360722 13.063372 -1.530225 -11.796041 10.530244 -0.491647 0.000000 0.000000 0.000000 
0.001059 0.959775 -0.001075 -0.496576 4.501868 -0.495692 4.562234 0.264676 8.223327 -3.305701 0.345457 -9.879522 -0.605327 5.151763 14.821238 0.000000 0.000000 0.000000 -1.066296 -0.718155 7.466167 0.169196 -0.266084 -6.260822 -2.542907 -9.703985 14.176989 0.000000 0.000000 0.000000 -1.352937 -0.097004 3.543265 3.770441 -0.264789 -23.510113 -3.381244 -3.241530 28.938024 -0.124503 1.196233 -19.847580 0.000000 0.000000 0.000000 -9.798703 5.583989 -2.901594 -20.671581 -13.357270 -1.898974 9.674821 -7.499036 -0.260744 0.000000 0.000000 0.000000 0.329546 -1.259863 -0.464593 26.114374 12.668204 -1.684276 -11.171149 11.361880 -0.485394 0.000000 0.000000 0.000000 
0.001186 0.959167 -0.000876 -0.470957 4.613247 -0.459614 4.664391 0.243973 8.019061 -3.333542 0.344784 -9.649804 -0.578237 5.134603 14.604929 0.000000 0.000000 0.000000 -1.150133 -0.723595 7.571584 0.307619 -0.282527 -6.451474 -2.627514 -9.814916 14.002247 0.000000 0.000000 0.000000 -1.437196 -0.088687 3.372480 3.866898 -0.303384 -23.173209 -3.348604 -3.189011 28.737268 -0.144465 1.250331 -20.193264 0.000000 0.000000 0.000000 -11.804255 4.942827 -2.829612 -23.198643 -13.554937 -1.987711 9.342957 -8.431999 -0.275067 0.000000 0.000000 0.000000 2.260029 -0.337106 -0.216504 29.029946 12.040633 -1.896169 -10.280061 12.377761 -0.462319 0.000000 0.000000 0.000000 
0.001337 0.958734 -0.000611 -0.440918 4.695950 -0.472601 4.698942 0.232240 7.843102 -3.349550 0.344656 -9.374868 -0.539958 5.174479 14.514937 0.000000 0.000000 0.000000 -1.302476 -0.720090 7.646690 0.483922 -0.282246 -6.180576 -2.648729 -9.794996 13.725520 0.000000 0.000000 0.000000 -1.538029 -0.081942 3.255641 3.932354 -0.329725 -22.954582 -3.350736 -3.208842 28.673127 -0.100120 1.257589 -20.761922 0.000000 0.000000 0.000000 -13.788043 4.834435 -2.995695 -26.255787 -13.474409 -2.141376 8.277220 -9.675890 -0.234128 0.000000 0.000000 0.000000 4.693285 0.632643 0.059668 31.877290 11.294886 -2.169863 -9.361102 13.536372 -0.429328 0.000000 0.000000 0.000000 
0.001530 0.958135 -0.000208 -0.459100 4.804560 -0.487673 4.834299 0.211163 7.682797 -3.501582 0.346915 -9.028043 -0.623726 4.957944 14.216705 0.000000 0.000000 0.000000 -1.412325 -0.729014 7.806343 0.559190 -0.292581 -6.318119 -2.684676 -9.832450 13.629516 0.000000 0.000000 0.000000 -1.608289 -0.074305 3.063015 4.112911 -0.395042 -22.567691 -3.349848 -2.953704 28.500562 -0.143529 1.346092 -20.808145 0.000000 0.000000 0.000000 -16.064571 4.324342 -3.055372 -28.856750 -13.172559 -2.291764 7.371749 -10.679135 -0.183975 0.000000 0.000000 0.000000 7.205351 1.291437 0.265526 34.971126 10.437627 -2.518753 -8.616768 14.621715 -0.378634 0.000000 0.000000 0.000000 
0.001727 0.957560 0.000280 -0.407748 5.028670 -0.564373 4.960568 0.187332 7.457417 -3.680464 0.349733 -8.565130 -0.601189 4.904875 13.880269 0.000000 0.000000 0.000000 -1.608444 -0.729839 7.938084 0.708267 -0.289654 -5.981216 -2.757736 -9.865972 13.176286 0.000000 0.000000 0.000000 -1.506301 -0.074120 2.935793 4.099412 -0.413554 -22.076788 -3.492392 -2.877160 28.242693 0.036236 1.285550 -21.152736 0.000000 0.000000 0.000000 -18.134691 4.091436 -3.232589 -31.851639 -12.397917 -2.567292 6.448799 -11.675587 -0.111331 0.000000 0.000000 0.000000 9.593133 1.655579 0.369537 38.020142 9.941290 -2.792477 -8.060672 15.572112 -0.328515 0.000000 0.000000 0.000000 
0.001922 0.956928 0.000827 -0.369251 5.262879 -0.547404 5.046772 0.174644 7.474501 -3.852322 0.350889 -8.455265 -0.588030 4.830664 13.534551 0.000000 0.000000 0.000000 -1.725115 -0.730691 8.006995 0.816358 -0.295999 -5.945490 -2.860559 -9.998696 12.976412 0.000000 0.000000 0.000000 -1.659136 -0.067486 2.856851 4.140369 -0.421731 -22.040826 -3.424979 -2.864420 28.163448 -0.124430 1.424083 -21.319535 0.000000 0.000000 0.000000 -19.964508 3.881014 -3.386768 -34.859106 -11.244926 -2.990116 5.635196 -12.585029 -0.028698 0.000000 0.000000 0.000000 11.056357 1.782535 0.405208 41.711794 9.185343 -3.203750 -7.708117 16.230484 -0.277771 0.000000 0.000000 0.000000 
0.002114 0.956473 0.001327 -0.270711 5.464449 -0.534043 5.198645 0.149384 7.263012 -4.067588 0.355480 -8.153110 -0.694375 4.634316 13.387176 0.000000 0.000000 0.000000 -1.941159 -0.717344 8.018794 0.919820 -0.297099 -5.771124 -2.834169 -9.887490 12.739224 0.000000 0.000000 0.000000 -1.783616 -0.059706 2.697300 4.079744 -0.421440 -21.664762 -3.477677 -3.033811 27.970952 -0.264513 1.543250 -22.009134 0.000000 0.000000 0.000000 -21.549579 4.056731 -3.694969 -37.974363 -10.028429 -3.492818 4.769055 -13.469113 0.078537 0.000000 0.000000 0.000000 12.610636 1.886041 0.393169 44.984431 8.418668 -3.611079 -7.375627 17.148240 -0.237761 0.000000 0.000000 0.000000 
0.002289 0.956200 0.001766 -0.205687 5.548957 -0.540086 5.336203 0.129327 7.069839 -4.324460 0.365877 -7.669690 -0.770550 4.347595 12.903908 0.000000 0.000000 0.000000 -2.059095 -0.695655 7.878593 0.966671 -0.290949 -5.500811 -2.958225 -10.067801 12.465128 0.000000 0.000000 0.000000 -1.885213 -0.054832 2.608937 4.049469 -0.410705 -21.682672 -3.476908 -2.902008 27.933992 -0.325575 1.606658 -21.889343 0.000000 0.000000 0.000000 -22.755645 4.066965 -3.926397 -40.625173 -8.981149 -3.964379 3.978889 -14.146974 0.182999 0.000000 0.000000 0.000000 13.993564 1.664539 0.271377 48.070395 7.130464 -4.266901 -7.263388 18.191062 -0.209978 0.000000 0.000000 0.000000 
0.002470 0.956126 0.002159 -0.167829 5.572267 -0.542866 5.430600 0.116452 6.932097 -4.546316 0.376523 -7.294893 -0.798629 4.215410 12.661808 0.000000 0.000000 0.000000 -2.270150 -0.681493 7.901265 0.987666 -0.288749 -5.394527 -2.887065 -9.912456 12.353610 0.000000 0.000000 0.000000 -1.893269 -0.051742 2.495460 3.941592 -0.393954 -21.431352 -3.452573 -2.923133 27.793406 -0.351694 1.636112 -22.152604 0.000000 0.000000 0.000000 -23.850716 4.333527 -4.252199 -42.932244 -8.214960 -4.366837 3.366162 -14.526722 0.274502 0.000000 0.000000 0.000000 14.945892 1.374338 0.084226 50.738894 5.971864 -4.885066 -6.891947 19.382480 -0.152098 0.000000 0.000000 0.000000 
